<?xml version="1.0" standalone="no"?>
<svg version="1.0" xmlns="http://www.w3.org/2000/svg"
 width="90.000000pt" height="90.000000pt" viewBox="0 0 98.000000 98.000000"
 preserveAspectRatio="xMidYMid meet">

<g transform="translate(0.000000,98.000000) scale(0.100000,-0.100000)"
fill="#000000" stroke="none">
    <path d="M460 775 l0 -65 135 0 c152 0 182 -9 215 -63 25 -41 25 -83 0 -124 -33 -54 -63 -63 -215 -63 l-135 0 0 -160 0 -160 85 0 85 0 0 90 0 90 73 0 c55 0 84 6 123 24 190 88 190 384 0 472 -47 22 -64 24 -208 24 l-158 0 0 -65z"/>
    <path d="M460 585 l0 -65 85 0 85 0 0 65 0 65 -85 0 -85 0 0 -65z"/>
    <path d="M10 775 l0 -65 195 0 195 0 0 65 0 65 -195 0 -195 0 0 -65z"/>
    <path d="M10 585 l0 -65 195 0 195 0 0 65 0 65 -195 0 -195 0 0 -65z"/>
    <path d="M10 395 l0 -65 195 0 195 0 0 65 0 65 -195 0 -195 0 0 -65z"/>
    <path d="M10 205 l0 -65 195 0 195 0 0 65 0 65 -195 0 -195 0 0 -65z"/>
</g>
</svg>
